# xmcd
#
# Track frame offsets:
# 192
# 10770
# 22710
# 31475
# 42137
# 54295
# 64177
# 76015
# 90465
# 102130
# 113360
# 129177
# 141242
# 154227
# 164027
# 175462
# 186790
# 198675
# 211635
# 223085
# 233230
# 244875
# 256052
# 267600
# 279875
# 293412
# 304555
# 316887
#
# Disc length: 4362 seconds
#
# Revision: 0
# Processed by: cddbd v1.4PL0 Copyright (c) Steve Scherf et al.
# Submitted via: Audion 3.0.2 (http://www.panic.com/audion/)
#
DISCID=7311081c
DTITLE=Clyde Otis Music Group - Classics
DYEAR=1900
DGENRE=
TTITLE0=I'll Take Care of You
TTITLE1=I'm too far Gone to Turn Around
TTITLE2=Why Baby Why
TTITLE3=Endlessly
TTITLE4=For my Baby
TTITLE5=Hurtin' Inside
TTITLE6=I Got What I Wanted 
TTITLE7=I Keep Thinking to Myself
TTITLE8=It's Just a House without You
TTITLE9=It's Just a Matter of Time
TTITLE10=It's Too Late to Turn Back Now
TTITLE11=Kiddio
TTITLE12=Mother nature-Father Time
TTITLE13=So Close
TTITLE14=So Many Ways
TTITLE15=Thank You Pretty Baby
TTITLE16=The Boll Weevil Song
TTITLE17=The Ties that Bind
TTITLE18=The Same One
TTITLE19=Lie to Me
TTITLE20=Think Twice
TTITLE21=This Time of the Year
TTITLE22=A Tear Fell
TTITLE23=Please Say You're Fooling
TTITLE24=If I May
TTITLE25=Looking Back
TTITLE26=Nothing In the World (Could Make me love You More than I Do)
TTITLE27=That's all there is to That
EXTD=
EXTT0=
EXTT1=
EXTT2=
EXTT3=
EXTT4=
EXTT5=
EXTT6=
EXTT7=
EXTT8=
EXTT9=
EXTT10=
EXTT11=
EXTT12=
EXTT13=
EXTT14=
EXTT15=
EXTT16=
EXTT17=
EXTT18=
EXTT19=
EXTT20=
EXTT21=
EXTT22=
EXTT23=
EXTT24=
EXTT25=
EXTT26=
EXTT27=
PLAYORDER=
